<svg width="500" height="500" viewBox="0 0 500 500" fill="none" xmlns="http://www.w3.org/2000/svg">
<g clip-path="url(#clip0_208_566)">
<path d="M422.36 0H77.6398C34.7605 0 0 34.7605 0 77.6398V422.36C0 465.24 34.7605 500 77.6398 500H422.36C465.24 500 500 465.24 500 422.36V77.6398C500 34.7605 465.24 0 422.36 0Z" fill="#F0F4F9"/>
<path d="M372.152 327.702C365.292 327.702 359.73 322.14 359.73 315.279V298.385C359.73 291.524 365.292 285.963 372.152 285.963H386.662C393.525 285.963 399.084 291.524 399.084 298.385V315.279C399.084 322.14 393.525 327.702 386.662 327.702H372.152Z" fill="#353252"/>
<path d="M262 391.366C257.627 391.366 249.789 390.609 245.615 389.814C241.441 389.217 230.36 382.286 226.981 380.497V349.441C229.565 350.037 242.037 355.056 245.615 355.652C249.391 356.248 254.348 356.783 257.528 356.783C266.472 356.783 272.932 354.696 276.907 350.522C281.081 346.547 284.758 341.18 287.938 334.422L298.671 309.379L298.075 342.174L241.12 241.926C241.12 241.926 250.273 234.534 254.932 229.876C260.41 224.398 267.354 212.795 267.354 212.795L318.944 295.366H304.037L353.23 163.59H395.565L324.907 342.174C320.733 352.509 315.665 361.354 309.702 368.708C303.739 376.062 296.783 381.627 288.832 385.404C281.081 389.379 272.137 391.366 262 391.366Z" fill="#55518A"/>
<path d="M102.484 327.702V105.59H185.068C200.174 105.59 213.491 108.373 225.019 113.938C236.745 119.304 245.888 127.255 252.447 137.789C259.006 148.124 262.286 160.745 262.286 175.652C262.286 190.957 258.609 203.975 251.255 214.708C244.099 225.441 234.36 233.391 222.037 238.559L273.565 329.255C273.565 329.255 263.897 340.103 254.932 340.124C250.668 340.134 243.077 340.379 237.851 338.571C231.887 336.509 228.534 332.36 228.534 332.36L172.547 230.211L198.783 245.714H143.031V327.702H102.484ZM143.031 209.938H185.665C193.019 209.938 199.379 208.547 204.745 205.764C210.112 202.783 214.286 198.708 217.267 193.54C220.248 188.373 221.739 182.41 221.739 175.652C221.739 168.696 220.248 162.733 217.267 157.764C214.286 152.596 210.112 148.621 204.745 145.839C199.379 142.857 193.019 141.366 185.665 141.366H143.031V209.938Z" fill="#584DFF"/>
</g>
<defs>
<clipPath id="clip0_208_566">
<rect width="500" height="500" fill="white"/>
</clipPath>
</defs>
</svg>
